# File created by Blade
# Date/Time:  Tue Apr 07 20:35:22 2015
#---------------------------------------------------------
:version 1.10
:name HOM
:units
  mass 1.0
  length 1.000000
  angle deg
:documentation
     Acclaim Skeleton File
:root
   axis xyz
   order TX TY TZ RX RY RZ
   position 0.000000 0.000000 0.000000
   orientation 0 0 0
:bonedata
   begin
      id 1
      name Spine_dum
      direction 0.000000 1.000000 0.000000
      length 4.885285
      axis 0.0 0.0 0.0 xyz
   end
   begin
      id 2
      name LeftUpLeg_dum
      direction 1.000000 0.000000 0.000000
      length 2.672193
      axis 0.0 0.0 0.0 xyz
   end
   begin
      id 3
      name RightUpLeg_dum
      direction -1.000000 0.000000 0.000000
      length 2.672193
      axis 0.0 0.0 0.0 xyz
   end
   begin
      id 4
      name Spine
      direction 0.000000 1.000000 0.000000
      length 0.000000
      axis 0.0 0.0 0.0 xyz
      dof rx ry rz
   end
   begin
      id 5
      name Spine_dum1
      direction 0.000000 1.000000 0.000000
      length 16.494159
      axis 0.0 0.0 0.0 xyz
   end
   begin
      id 6
      name Spine_dum2
      direction 0.000000 1.000000 0.000000
      length 10.663448
      axis 0.0 0.0 0.0 xyz
   end
   begin
      id 7
      name Spine_dum3
      direction 0.000000 1.000000 0.000000
      length 10.663448
      axis 0.0 0.0 0.0 xyz
   end
   begin
      id 8
      name Head
      direction 0.000000 1.000000 0.000000
      length 4.527550
      axis 0.0 0.0 0.0 xyz
      dof rx ry rz
   end
   begin
      id 9
      name LeftShoulder
      direction 1.000000 0.000000 0.000000
      length 7.531907
      axis 0.0 0.0 -90.0 xyz
      dof rx ry rz
   end
   begin
      id 10
      name LeftArm
      direction 1.000000 0.000000 0.000000
      length 10.229199
      axis 0.0 0.0 -90.0 xyz
      dof rx ry rz
   end
   begin
      id 11
      name LeftForeArm
      direction 1.000000 0.000000 0.000000
      length 8.673495
      axis 0.0 0.0 -90.0 xyz
      dof ry rz rx
   end
   begin
      id 12
      name LeftHand
      direction 0.000000 0.000000 0.000000
      length 0.000000
      axis 0.0 0.0 -90.0 xyz
      dof rx ry rz
   end
   begin
      id 13
      name LeftHand_dum1
      direction 0.000000 0.000000 0.000000
      length 0.000000
      axis 0.0 0.0 -90.0 xyz
   end
   begin
      id 14
      name LeftHand_dum2
      direction 1.000000 0.000000 0.000000
      length 3.937000
      axis 0.0 0.0 -90.0 xyz
   end
   begin
      id 15
      name LeftHandThumb1
      direction 0.000000 0.000000 1.000000
      length 3.937000
      axis 0.0 0.0 -90.0 xyz
      dof rx rz ry
   end
   begin
      id 16
      name RightShoulder
      direction -1.000000 0.000000 0.000000
      length 7.531907
      axis 0.0 0.0 90.0 xyz
      dof rx ry rz
   end
   begin
      id 17
      name RightArm
      direction -1.000000 0.000000 0.000000
      length 10.229199
      axis 0.0 0.0 90.0 xyz
      dof rx ry rz
   end
   begin
      id 18
      name RightForeArm
      direction -1.000000 0.000000 0.000000
      length 8.673495
      axis 0.0 0.0 90.0 xyz
      dof ry rz rx
   end
   begin
      id 19
      name RightHand
      direction 0.000000 0.000000 0.000000
      length 0.000000
      axis 0.0 0.0 90.0 xyz
      dof rx ry rz
   end
   begin
      id 20
      name RightHand_dum1
      direction 0.000000 0.000000 0.000000
      length 0.000000
      axis 0.0 0.0 90.0 xyz
   end
   begin
      id 21
      name RightHand_dum2
      direction -1.000000 0.000000 0.000000
      length 3.937000
      axis 0.0 0.0 90.0 xyz
   end
   begin
      id 22
      name RightHandThumb1
      direction 0.000000 0.000000 1.000000
      length 3.937000
      axis 0.0 0.0 90.0 xyz
      dof rx rz ry
   end
   begin
      id 23
      name LeftUpLeg
      direction 0.000000 -1.000000 0.000000
      length 16.263388
      axis 0.0 0.0 0.0 xyz
      dof rx ry rz
   end
   begin
      id 24
      name LeftLeg
      direction 0.000000 -1.000000 0.000000
      length 14.328163
      axis 0.0 0.0 0.0 xyz
      dof rx ry rz
   end
   begin
      id 25
      name LeftFoot
      direction 0.000000 -0.258819 0.965926
      length 5.031290
      axis 15.0 0.0 0.0 xyz
      dof rx ry rz
   end
   begin
      id 26
      name LeftToeBase
      direction 0.000000 0.000000 1.000000
      length 2.952750
      axis 0.0 0.0 0.0 xyz
      dof rx ry rz
   end
   begin
      id 27
      name RightUpLeg
      direction 0.000000 -1.000000 0.000000
      length 16.263388
      axis 0.0 0.0 0.0 xyz
      dof rx ry rz
   end
   begin
      id 28
      name RightLeg
      direction 0.000000 -1.000000 0.000000
      length 14.328163
      axis 0.0 0.0 0.0 xyz
      dof rx ry rz
   end
   begin
      id 29
      name RightFoot
      direction 0.000000 -0.258819 0.965926
      length 5.031290
      axis 15.0 0.0 0.0 xyz
      dof rx ry rz
   end
   begin
      id 30
      name RightToeBase
      direction 0.000000 0.000000 1.000000
      length 2.952750
      axis 0.0 0.0 0.0 xyz
      dof rx ry rz
   end
:hierarchy
   begin
      root Spine_dum LeftUpLeg_dum RightUpLeg_dum
      Spine_dum Spine
      LeftUpLeg_dum LeftUpLeg
      RightUpLeg_dum RightUpLeg
      Spine Spine_dum1 Spine_dum2 Spine_dum3
      Spine_dum1 Head
      Spine_dum2 LeftShoulder
      Spine_dum3 RightShoulder
      LeftShoulder LeftArm
      LeftArm LeftForeArm
      LeftForeArm LeftHand
      LeftHand LeftHand_dum1 LeftHand_dum2
      LeftHand_dum1 LeftHandThumb1
      RightShoulder RightArm
      RightArm RightForeArm
      RightForeArm RightHand
      RightHand RightHand_dum1 RightHand_dum2
      RightHand_dum1 RightHandThumb1
      LeftUpLeg LeftLeg
      LeftLeg LeftFoot
      LeftFoot LeftToeBase
      RightUpLeg RightLeg
      RightLeg RightFoot
      RightFoot RightToeBase
   end

# File created by Blade
# Date/Time:  Tue Apr 07 20:35:32 2015
# Frame Rate: 120.000 fps
#------------------------------------------------------
:FULLY-SPECIFIED
:DEGREES
309
root 2.110960 33.095880 -1.216182 13.948637 -37.605978 -17.145088
Spine -2.425652 21.209157 7.117467
Head 12.016021 2.860977 2.926853
LeftShoulder -24.043439 44.683263 9.432704
LeftArm 50.601639 -39.203162 -82.041058
LeftForeArm 7.491637 0.000000 28.819834
LeftHand 8.557271 -0.000000 1.708085
LeftHandThumb1 -26.253704 0.000000 33.147579
RightShoulder 5.182572 7.049826 -19.196348
RightArm 28.128581 -15.661909 88.144805
RightForeArm -1.724781 -0.000000 17.725941
RightHand 7.239617 0.000000 2.483900
RightHandThumb1 -24.326973 -0.000000 -32.862282
LeftUpLeg -6.172212 7.955806 4.340174
LeftLeg 11.173343 -0.000000 -0.000000
LeftFoot -12.649074 18.410918 -7.687618
LeftToeBase -9.662408 -0.000000 0.000000
RightUpLeg -68.844295 -53.945575 -1.088523
RightLeg 89.997943 -0.000000 -0.000000
RightFoot 27.822078 -30.101224 3.319207
RightToeBase 22.486939 -0.000000 -0.000000
310
root 2.109112 33.096990 -1.207774 14.041177 -37.779035 -17.360308
Spine -2.328519 21.355467 7.222689
Head 12.015135 2.891971 3.001758
LeftShoulder -24.115906 44.696342 9.358711
LeftArm 50.451801 -39.097894 -82.035087
LeftForeArm 7.534965 0.000000 28.976512
LeftHand 8.453011 -0.000000 1.512720
LeftHandThumb1 -26.253704 0.000000 33.147579
RightShoulder 5.181069 6.969537 -19.104501
RightArm 28.053796 -15.448872 87.939890
RightForeArm -1.593249 -0.000000 17.776107
RightHand 7.199976 -0.000000 2.405576
RightHandThumb1 -24.326973 -0.000000 -32.862282
LeftUpLeg -6.135114 7.983382 4.469943
LeftLeg 11.281127 -0.000000 -0.000000
LeftFoot -12.794505 18.565104 -7.853606
LeftToeBase -9.640034 -0.000000 0.000000
RightUpLeg -69.317836 -54.051276 -0.707313
RightLeg 90.050297 -0.000000 -0.000000
RightFoot 27.965260 -30.026053 3.305723
RightToeBase 22.476364 -0.000000 -0.000000
311
root 2.108438 33.098509 -1.198132 14.104795 -37.985823 -17.550305
Spine -2.210587 21.519504 7.296587
Head 12.012931 2.906209 3.093522
LeftShoulder -24.210096 44.712508 9.273631
LeftArm 50.301489 -39.001617 -82.045197
LeftForeArm 7.617306 -0.000000 29.138979
LeftHand 8.342460 -0.000000 1.255934
LeftHandThumb1 -26.253704 0.000000 33.147579
RightShoulder 5.164188 6.906329 -19.002799
RightArm 27.966799 -15.248777 87.734314
RightForeArm -1.499255 -0.000000 17.787381
RightHand 7.247461 -0.000000 2.298773
RightHandThumb1 -24.326973 -0.000000 -32.862282
LeftUpLeg -6.075670 8.098853 4.575101
LeftLeg 11.388154 -0.000000 -0.000000
LeftFoot -12.932477 18.628964 -8.018560
LeftToeBase -9.566000 -0.000000 0.000000
RightUpLeg -69.771028 -54.120042 -0.387373
RightLeg 90.079676 -0.000000 -0.000000
RightFoot 28.080221 -30.002542 3.363768
RightToeBase 22.660852 -0.000000 -0.000000
312
root 2.106213 33.099509 -1.182757 14.094757 -38.250286 -17.718470
Spine -2.032320 21.699252 7.367732
Head 12.038106 2.955294 3.190656
LeftShoulder -24.372237 44.776470 9.123259
LeftArm 50.213539 -38.898381 -82.077826
LeftForeArm 7.706884 -0.000000 29.243492
LeftHand 8.303037 -0.000000 1.127224
LeftHandThumb1 -26.253704 0.000000 33.147579
RightShoulder 5.168382 6.790967 -18.889590
RightArm 27.941021 -15.076146 87.476344
RightForeArm -1.446760 -0.000000 17.792767
RightHand 7.366855 0.000000 2.298277
RightHandThumb1 -24.326973 -0.000000 -32.862282
LeftUpLeg -5.914213 8.280689 4.656115
LeftLeg 11.454200 -0.000000 -0.000000
LeftFoot -13.048481 18.668115 -8.172144
LeftToeBase -9.469534 -0.000000 0.000000
RightUpLeg -70.132912 -54.163291 -0.182482
RightLeg 90.082806 -0.000000 -0.000000
RightFoot 28.259501 -30.045034 3.434592
RightToeBase 22.505446 -0.000000 -0.000000
